#tb 0: 1/25
0,          0,          0,        1,   149760, 0x211e8487
0,          1,          1,        1,   149760, 0xa53b13d8
0,          2,          2,        1,   149760, 0xb63cc103
